<svg id="Layer_3" enable-background="new 0 0 64 64" fill="#206B00" height="512" viewBox="0 0 64 64" width="512" xmlns="http://www.w3.org/2000/svg"><g><path d="m61.707 54.293-13.293-13.293c-.634-.635-1.59-.744-2.345-.345l-12.155-12.155.086-.086c.78-.78.78-2.048 0-2.828l-1.586-1.586 5.293-5.293c.188-.187.293-.442.293-.707 0-4.136-1.61-8.024-4.535-10.95l-1.516-1.514c-2.924-2.925-6.812-4.536-10.949-4.536-.266 0-.52.105-.707.293l-19 19c-.188.187-.293.442-.293.707 0 4.136 1.61 8.024 4.535 10.95l1.516 1.514c2.924 2.925 6.812 4.536 10.949 4.536.266 0 .52-.105.707-.293l5.293-5.293 1.586 1.586c.39.39.902.585 1.414.585s1.024-.195 1.414-.585l.086-.086 12.155 12.155c-.399.755-.29 1.71.345 2.345l13.293 13.293c.834.834 1.942 1.293 3.121 1.293h1.172c1.179 0 2.287-.459 3.121-1.292s1.293-1.942 1.293-3.122v-1.172c0-1.18-.459-2.288-1.293-3.121zm-8.707-5.879 1.586 1.586-4.586 4.586-1.586-1.586zm-6 3.172-1.586-1.586 4.586-4.586 1.586 1.586zm9-.172 1.586 1.586-4.586 4.586-1.586-1.586zm-33-20.828-14.586-14.586 7.586-7.586 14.586 14.586zm-1.592-27.58c3.449.102 6.677 1.493 9.127 3.944l1.516 1.514c2.45 2.451 3.842 5.679 3.943 9.127l-3.994 3.995-14.586-14.586zm-3.816 32.988c-3.449-.102-6.677-1.493-9.127-3.944l-1.516-1.514c-2.45-2.451-3.842-5.679-3.943-9.127l3.994-3.995 14.586 14.586zm7.822-4.994 5.586-5.586 1.586 1.586-5.586 5.586zm7.086-1.086 12.086 12.086-2.586 2.586-12.086-12.086zm14.5 12.5 1.586 1.586-4.586 4.586-1.586-1.586zm14 16.172c0 .645-.251 1.251-.707 1.707s-1.063.707-1.707.707h-1.172c-.645 0-1.251-.251-1.707-.707l-1.293-1.293 4.586-4.586 1.293 1.293c.456.456.707 1.062.707 1.707z"/><path d="m58.5 57c-.827 0-1.5.673-1.5 1.5s.673 1.5 1.5 1.5 1.5-.673 1.5-1.5-.673-1.5-1.5-1.5zm0 2c-.275 0-.5-.224-.5-.5s.225-.5.5-.5.5.224.5.5-.225.5-.5.5z"/></g></svg>