<svg id="Layer_1" data-name="Layer 1" xmlns="http://www.w3.org/2000/svg" viewBox="0 0 25 25"><defs><style>.cls-1{fill:#357745;}</style></defs><path class="cls-1" d="M4.94,6.36a6.14,6.14,0,0,0,.62-.25.29.29,0,0,0,.1-.23c0-1.28,0-2.56,0-3.85,0-.59.27-.86.87-.86H7.77a.71.71,0,0,1,.77.77c0,.91,0,1.82,0,2.73V5c.29-.12.58-.21.85-.33a1.79,1.79,0,0,1,1.06-.2,1.41,1.41,0,0,0,1.38-.56c.4-.48.87-.89,1.31-1.34.33.26.54.74,1.08.54s.41-.72.44-1.16h3.6v.53a.65.65,0,0,0,1.09.5c.14-.13.26-.28.37-.4L22.3,5.1l-.36.35a.61.61,0,0,0-.15.72.63.63,0,0,0,.62.4h.53v3.61h-.56a.63.63,0,0,0-.63.56c-.05.33.1.51.47.53V15.6a1.82,1.82,0,0,1,0,3.56v3.62h1.42v.71H1.34V8a.27.27,0,0,1,.2-.3c.53-.19.52-.2.52-.76V3.46a.75.75,0,0,1,.84-.85H4.18a.72.72,0,0,1,.76.77C5,4.36,4.94,5.34,4.94,6.36ZM2.06,14.84h9.35V6.55a4.71,4.71,0,0,0-1.15.09c-2.68,1-5.34,2-8,3a.25.25,0,0,0-.19.28v4.93Zm12.23-3.59a3.6,3.6,0,1,1,4.53-5.6,3.49,3.49,0,0,1,1.24,2.47,3.61,3.61,0,0,1-1.41,3.13h2.41c-.06-1.12.15-1.45,1.17-1.81V7.3a1.41,1.41,0,0,1-.92-2.25l-.77-.75-.76-.77a1.41,1.41,0,0,1-1.38.19,1.36,1.36,0,0,1-.85-1.1H15.39a1.37,1.37,0,0,1-.85,1.1,1.4,1.4,0,0,1-1.39-.19c-.29.3-.56.58-.85.86a.49.49,0,0,0-.16.37c0,2.09,0,4.17,0,6.26v.23Zm5.77,8h-7.9v3.57h7.9ZM10.71,17v5.75h.7V15.6H2.08v7.17h.71V17h3.6v5.74h.72V17h3.6Zm5.76-5.76a2.89,2.89,0,1,0-2.88-2.88A2.89,2.89,0,0,0,16.47,11.26ZM5.65,22.77v-5H3.51v5Zm4.33-5H7.84v5H10Zm7.94-2.2h3.57V12h-.7V13.4H18.62V12h-.7ZM12.16,12v3.57h3.57V12H15V13.4H12.86V12Zm-.74-6.86c-.33,0-.64,0-.95,0a2,2,0,0,0-.83.16c-1.27.51-2.55,1-3.82,1.5S3.43,7.72,2.24,8.2a.25.25,0,0,0-.17.16,5.27,5.27,0,0,0,0,.57l.24-.08,7.76-2.91a1.32,1.32,0,0,1,.44-.08h.92ZM21.51,17.37a1.08,1.08,0,1,0-1.08,1.09A1.08,1.08,0,0,0,21.51,17.37Zm-4.32,0a1.08,1.08,0,1,0-1.08,1.07A1.08,1.08,0,0,0,17.19,17.39ZM6.39,5.79l1.35-.53a.13.13,0,0,0,.08-.11c0-.6,0-1.2,0-1.8H6.39ZM2.79,7.2l1.35-.53a.13.13,0,0,0,.08-.11V4.79H2.79Zm14.39,8.37V11.92l-.7.07v3.58ZM21.5,19.2h-.7v3.57h.7Zm-6.84-.75a1.82,1.82,0,0,1,0-2.13H13.24a1.82,1.82,0,0,1,0,2.13Zm4.33,0a1.82,1.82,0,0,1,0-2.15H17.56a1.83,1.83,0,0,1,0,2.15Zm2.89-2.15a1.82,1.82,0,0,1,0,2.13,1,1,0,0,0,1.06-1A1.07,1.07,0,0,0,21.88,16.31Zm-9.72,2.06a1.05,1.05,0,0,0,.71-1.05,1,1,0,0,0-.71-.92ZM2.79,4H4.21v-.7H2.79ZM6.4,1.9v.7H7.81V1.9Zm7.2,10.79h.69V12H13.6Zm5.77-.7v.7h.69V12Z"/><path class="cls-1" d="M2.8,10.55H4.93V13.4H2.8Zm.71.72v1.41h.7V11.27Z"/><path class="cls-1" d="M7.81,13.41H5.68V10.56H7.81ZM6.4,11.26v1.42h.69V11.26Z"/><path class="cls-1" d="M8.56,10.55h2.13v2.86H8.56Zm.72.72v1.41H10V11.27Z"/><path class="cls-1" d="M16.46,6.21a2.17,2.17,0,1,1-2.15,2.18A2.18,2.18,0,0,1,16.46,6.21Zm0,3.61a1.45,1.45,0,0,0,1.45-1.45,1.44,1.44,0,1,0-1.45,1.45Z"/><path class="cls-1" d="M20.43,17a.36.36,0,1,1-.36.36A.36.36,0,0,1,20.43,17Z"/><path class="cls-1" d="M16.47,17.37a.36.36,0,1,1-.72,0,.36.36,0,0,1,.72,0Z"/></svg>