<svg id="Capa_1" enable-background="new 0 0 512 512" height="512" fill="#206B00" viewBox="0 0 512 512" width="512" xmlns="http://www.w3.org/2000/svg"><g><path d="m504.5 496.172h-16.441c-2.367-11.296-9.612-20.999-19.708-25.786-7.296-3.458-14.39-3.646-19.629-2.979-2.76-9.274-9.128-16.812-17.752-20.901-8.148-3.863-16.01-3.456-21.51-2.271-.248-1.801 0-85.507 0-85.507l25.164-25.164h21.133c27.385 0 49.664-22.279 49.664-49.664v-20.24c0-6.341-5.159-11.5-11.5-11.5h-20.24c-27.385 0-49.664 22.279-49.664 49.664v21.133l-14.557 14.557v-85.914l14.941-14.941c19.363-19.364 19.363-50.872-.001-70.235l-14.312-14.311c-2.172-2.173-5.06-3.369-8.132-3.369s-5.96 1.196-8.131 3.368l-14.313 14.312c-19.363 19.364-19.363 50.872 0 70.235l14.947 14.947v130.799l-14.449-14.449v-30.909c0-36.762-29.907-66.669-66.669-66.669h-30.017c-6.341 0-11.5 5.159-11.5 11.5v30.017c0 36.762 29.908 66.669 66.67 66.669h30.908l25.057 25.057v27.246c-11.465-10.574-28.883-21.692-52.536-23.533-.457-.036-4.655-.335-11.118.123-4.132.294-7.243 3.881-6.95 8.013.294 4.132 3.884 7.23 8.013 6.95 5.452-.39 8.853-.135 8.889-.131 30.511 2.373 48.719 23.673 55.132 32.721 3.173 4.476 9.017 6.356 14.213 4.582 3.564-1.22 8.966-2.13 14.44.467 5.068 2.404 8.866 7.258 10.157 12.983 1.479 6.554 7.864 10.703 14.528 9.463 3.163-.592 7.934-.823 12.697 1.435 4.944 2.345 8.717 6.817 10.616 12.232h-234.73c.748-4.471 3.105-8.482 6.571-10.731 3.586-2.328 7.528-2.436 10.205-2.108 6.382.764 12.386-3.59 13.68-9.922 1.832-8.959 5.329-17.079 10.396-24.136 5.672-7.899 13.181-14.213 22.318-18.764 3.708-1.847 5.217-6.35 3.37-10.058-1.848-3.707-6.347-5.215-10.058-3.37-11.347 5.651-20.705 13.539-27.816 23.443-5.891 8.206-10.068 17.52-12.433 27.713-1.399-.072-2.923-.058-4.525.083-2.551-9.545-9.009-17.549-18.007-21.818-9.415-4.462-18.467-3.224-23.928-1.668-9.329-12.608-33.988-37.806-69.893-37.633v-47.531l25.108-25.108h21.133c27.385 0 49.664-22.279 49.664-49.664v-20.24c0-6.341-5.159-11.5-11.5-11.5h-20.24c-27.385 0-49.664 22.279-49.664 49.664v21.133l-14.501 14.501v-113.787l25.108-25.108h21.133c27.385 0 49.664-22.279 49.664-49.664v-20.24c0-6.341-5.159-11.5-11.5-11.5h-20.24c-27.385 0-49.664 22.279-49.664 49.665v21.133l-14.501 14.501v-99.771l14.942-14.942c19.363-19.364 19.363-50.872-.001-70.235l-14.311-14.312c-2.172-2.173-5.06-3.369-8.132-3.369s-5.96 1.196-8.131 3.368l-14.313 14.312c-19.363 19.364-19.363 50.872 0 70.235l14.946 14.946v144.771l-14.505-14.505v-30.909c0-10.136-2.219-19.873-6.594-28.94-1.799-3.73-6.279-5.296-10.015-3.496-3.73 1.8-5.295 6.284-3.495 10.014 3.387 7.018 5.104 14.562 5.104 22.421v15.909l-29.365-29.364c-2.93-2.929-7.678-2.929-10.607 0s-2.929 7.678 0 10.606l29.366 29.366h-15.91c-28.49 0-51.669-23.179-51.669-51.669v-26.517h26.517c9.247 0 18.317 2.47 26.23 7.143 3.567 2.106 8.165.923 10.271-2.645 2.106-3.566.922-8.165-2.645-10.271-10.221-6.036-21.929-9.227-33.857-9.227h-30.016c-6.341 0-11.5 5.159-11.5 11.5v30.017c0 36.761 29.907 66.669 66.669 66.669h30.91l25.112 25.112v128.779l-9.474-9.474v-26.277c0-32.325-26.298-58.624-58.623-58.624h-25.392c-6.341 0-11.5 5.159-11.5 11.5v25.391c0 32.325 26.299 58.624 58.624 58.624h26.289l10.708 10.707c-15.229 3.811-33.332 12.161-46.305 30.226-5.874 8.184-10.048 17.486-12.429 27.708-4.97-.252-11.518.526-17.831 4.623-7.729 5.015-12.63 13.785-13.505 23.312h-15.753c-4.143 0-7.5 3.357-7.5 7.5s3.357 7.5 7.5 7.5h497c4.143 0 7.5-3.357 7.5-7.5s-3.357-7.498-7.5-7.498zm-65.483-194.349c0-19.114 15.55-34.664 34.664-34.664h16.74v16.74c0 19.114-15.55 34.664-34.664 34.664h-6.133l15.131-15.131c2.929-2.93 2.929-7.678 0-10.607-2.93-2.928-7.678-2.928-10.607 0l-15.131 15.131zm-74.006 51.133-29.364-29.365c-2.929-2.928-7.677-2.928-10.607 0-2.929 2.93-2.929 7.678 0 10.607l29.365 29.365h-15.909c-28.491 0-51.67-23.179-51.67-51.669v-26.517h26.517c28.49 0 51.669 23.179 51.669 51.669v15.91zm36.946-151.465c-4.143 0-7.5 3.358-7.5 7.5v21.398l-4.337-4.337c-13.516-13.516-13.516-35.507-.001-49.022l11.838-11.837 11.837 11.837c13.516 13.516 13.516 35.507.001 49.022l-4.338 4.338v-21.399c0-4.142-3.357-7.5-7.5-7.5zm-234.766 101.332c0-19.114 15.55-34.664 34.664-34.664h16.74v16.74c0 19.114-15.55 34.664-34.664 34.664h-6.133l15.131-15.131c2.929-2.93 2.929-7.678 0-10.607-2.93-2.928-7.678-2.928-10.607 0l-15.131 15.131zm0-135c0-19.114 15.55-34.665 34.664-34.665h16.74v16.74c0 19.114-15.55 34.664-34.664 34.664h-6.133l15.131-15.131c2.929-2.929 2.929-7.678 0-10.606s-7.677-2.93-10.607 0l-15.131 15.131zm-68.974 206.164-23.631-23.631c-2.93-2.928-7.678-2.928-10.607 0-2.929 2.93-2.929 7.678 0 10.607l23.631 23.631h-11.284c-24.055 0-43.624-19.569-43.624-43.624v-21.89h21.892c24.054 0 43.623 19.569 43.623 43.624zm24.471-312.911v21.399l-4.337-4.337c-13.516-13.516-13.516-35.507-.001-49.022l11.838-11.837 11.837 11.837c13.516 13.516 13.516 35.507 0 49.022l-4.337 4.337v-21.399c0-4.142-3.357-7.5-7.5-7.5s-7.5 3.358-7.5 7.5zm100.017 435.096h-91.914c-.199-.016-.397-.03-.6-.03s-.401.015-.6.03h-91.236c.749-4.473 3.105-8.483 6.568-10.729 3.591-2.331 7.538-2.435 10.21-2.114 6.398.763 12.402-3.595 13.674-9.908 1.845-8.979 5.343-17.104 10.396-24.144 21.362-29.748 61.694-27.02 62.096-26.987 30.529 2.376 48.726 23.672 55.141 32.73 3.183 4.476 9.033 6.351 14.201 4.57 3.573-1.216 8.979-2.121 14.444.467 5.343 2.536 9.072 7.518 10.248 13.427-7.217 5.1-11.787 13.543-12.628 22.688z"/></g></svg>