<svg height="512pt" viewBox="0 0 512 512" width="512pt" fill="#206B00" xmlns="http://www.w3.org/2000/svg"><path d="m83 336c0 5.523438-4.476562 10-10 10s-10-4.476562-10-10 4.476562-10 10-10 10 4.476562 10 10zm0 0"/><path d="m502 492h-10v-236c0-16.542969-13.457031-30-30-30h-13v-50c0-3.1875-1.519531-6.1875-4.09375-8.070312-2.574219-1.882813-5.890625-2.425782-8.933594-1.460938l-49.972656 15.867188v-66.335938c0-5.523438-4.476562-10-10-10h-30v-20h30c5.523438 0 10-4.476562 10-10v-66c0-5.523438-4.476562-10-10-10h-240c-5.523438 0-10 4.476562-10 10v66c0 5.523438 4.476562 10 10 10h30v20h-30c-5.523438 0-10 4.476562-10 10v66.335938l-49.972656-15.867188c-3.042969-.964844-6.359375-.421875-8.933594 1.460938-2.574219 1.882812-4.09375 4.882812-4.09375 8.070312v50h-13c-16.542969 0-30 13.457031-30 30v236h-10c-5.523438 0-10 4.476562-10 10s4.476562 10 10 10h492c5.523438 0 10-4.476562 10-10s-4.476562-10-10-10zm-40-246c5.515625 0 10 4.484375 10 10v236h-23v-246zm-33-56.332031v302.332031h-43v-288.683594zm-283-169.667969h220v46h-220zm40 66h140v20h-140zm180 40v366h-40v-96c0-5.523438-4.476562-10-10-10h-120c-5.523438 0-10 4.476562-10 10v96h-40c0-16.546875 0-352.765625 0-366zm-100 280h40v86h-40zm-20 86h-40v-86h40zm-206-236c0-5.515625 4.484375-10 10-10h13v50c0 5.523438 4.476562 10 10 10s10-4.476562 10-10v-106.332031l43 13.648437v288.683594h-43v-116c0-5.523438-4.476562-10-10-10s-10 4.476562-10 10v116h-23zm0 0"/><path d="m176 206h60c5.523438 0 10-4.476562 10-10v-40c0-5.523438-4.476562-10-10-10h-60c-5.523438 0-10 4.476562-10 10v40c0 5.523438 4.476562 10 10 10zm10-40h40v20h-40zm0 0"/><path d="m276 206h60c5.523438 0 10-4.476562 10-10v-40c0-5.523438-4.476562-10-10-10h-60c-5.523438 0-10 4.476562-10 10v40c0 5.523438 4.476562 10 10 10zm10-40h40v20h-40zm0 0"/><path d="m176 286h60c5.523438 0 10-4.476562 10-10v-40c0-5.523438-4.476562-10-10-10h-60c-5.523438 0-10 4.476562-10 10v40c0 5.523438 4.476562 10 10 10zm10-40h40v20h-40zm0 0"/><path d="m276 286h60c5.523438 0 10-4.476562 10-10v-40c0-5.523438-4.476562-10-10-10h-60c-5.523438 0-10 4.476562-10 10v40c0 5.523438 4.476562 10 10 10zm10-40h40v20h-40zm0 0"/><path d="m176 366h60c5.523438 0 10-4.476562 10-10v-40c0-5.523438-4.476562-10-10-10h-60c-5.523438 0-10 4.476562-10 10v40c0 5.523438 4.476562 10 10 10zm10-40h40v20h-40zm0 0"/><path d="m276 366h60c5.523438 0 10-4.476562 10-10v-40c0-5.523438-4.476562-10-10-10h-60c-5.523438 0-10 4.476562-10 10v40c0 5.523438 4.476562 10 10 10zm10-40h40v20h-40zm0 0"/></svg>